<svg width="407" height="492" viewBox="0 0 407 492" fill="none" xmlns="http://www.w3.org/2000/svg">
<path d="M282.385 483.293L283.385 421.793C284.885 403.96 297.573 364.259 337.885 353.793C389.885 340.293 397.885 340.293 401.385 317.293C402.051 313.46 401.985 302.593 396.385 289.793C395.885 288.793 391.885 278.793 395.885 275.793C399.885 272.793 406.885 262.293 394.885 254.793C399.885 252.127 406.885 241.793 390.885 233.293C389.551 231.627 387.385 226.993 389.385 221.793C389.885 221.293 419.385 201.793 395.385 183.793C381.051 175.96 351.585 154.793 348.385 132.793C344.385 105.293 333.319 83.8296 311.5 63C284.148 36.8881 248 27 219.885 23.7933C191.77 20.5866 144.917 18.8678 105.385 40.7933C32.0171 81.485 -0.789795 164.605 30.8851 242.293C43.9527 274.343 85.8848 311.793 85.8848 311.793C85.8848 311.793 147.906 374.985 127.5 424.5M127.5 424.5C128.315 422.837 126.812 426.17 127.5 424.5V424.5ZM276.885 191.293C288.718 194.46 315.985 193.993 330.385 166.793L276.885 191.293Z" fill="white"/>
<path d="M282.385 483.293L283.385 421.793C284.885 403.96 297.573 364.259 337.885 353.793C389.885 340.293 397.885 340.293 401.385 317.293C402.051 313.46 401.985 302.593 396.385 289.793C395.885 288.793 391.885 278.793 395.885 275.793C399.885 272.793 406.885 262.293 394.885 254.793C399.885 252.127 406.885 241.793 390.885 233.293C389.551 231.627 387.385 226.993 389.385 221.793C389.885 221.293 419.385 201.793 395.385 183.793C381.051 175.96 351.585 154.793 348.385 132.793C344.385 105.293 333.319 83.8296 311.5 63C284.148 36.8881 248 27 219.885 23.7933C191.77 20.5866 144.917 18.8678 105.385 40.7933C32.0171 81.485 -0.789795 164.605 30.8851 242.293C43.9527 274.343 85.8848 311.793 85.8848 311.793C85.8848 311.793 147.906 374.985 127.5 424.5C127.5 424.5 145.735 430.447 151.5 440C156.693 448.606 157.446 455.75 155 465.5C153.012 473.424 144 483.293 144 483.293H282.385Z" fill="white"/>
<path d="M282.385 483.293L283.385 421.793C284.885 403.96 297.573 364.259 337.885 353.793C389.885 340.293 397.885 340.293 401.385 317.293C402.051 313.46 401.985 302.593 396.385 289.793C395.885 288.793 391.885 278.793 395.885 275.793C399.885 272.793 406.885 262.293 394.885 254.793C399.885 252.127 406.885 241.793 390.885 233.293C389.551 231.627 387.385 226.993 389.385 221.793C389.885 221.293 419.385 201.793 395.385 183.793C381.051 175.96 351.585 154.793 348.385 132.793C344.385 105.293 333.319 83.8296 311.5 63C284.148 36.8881 248 27 219.885 23.7933C191.77 20.5866 144.917 18.8678 105.385 40.7933C32.0171 81.485 -0.789794 164.605 30.8851 242.293C43.9527 274.343 85.8848 311.793 85.8848 311.793C85.8848 311.793 147.906 374.985 127.5 424.5M127.5 424.5C126.812 426.17 128.315 422.837 127.5 424.5ZM276.885 191.293C288.718 194.46 315.985 193.993 330.385 166.793" stroke="#1E1E1E" stroke-width="4"/>
<path d="M266.884 125.793L105.384 246.293C31.8843 261.293 43.8843 163.793 43.8843 158.793C87.0843 26.3933 192.884 30.6266 240.384 49.2933C313.984 70.4933 288.718 109.127 266.884 125.793Z" fill="#5E60CE" stroke="#5E60CE" stroke-width="4"/>
<path d="M137.885 384.793C270.285 363.593 301.052 337.627 299.885 327.293C245.885 312.493 228.052 253.793 225.885 226.293C213.885 117.587 262.885 58.3325 288.885 42.2933C269.685 9.09333 223.551 0.46002 202.885 0.293361C8.38477 -8.20664 4.88476 170.793 0.88505 175.293C-10.3149 378.893 87.5517 399.793 137.885 384.793Z" fill="#88DBFF" fill-opacity="0.75"/>
<path d="M243.885 130.293C254.885 130.293 275.885 123.693 271.885 97.2933C268.218 88.46 255.385 73.9933 233.385 86.7933C235.551 76.1267 232.985 54.1933 205.385 51.7933C195.885 51.7933 176.485 56.6933 174.885 76.2933" stroke="white" stroke-width="4"/>
<path d="M190.384 88.2933C189.218 84.2933 183.884 76.4933 171.884 77.2933M171.884 77.2933C167.218 78.6267 158.284 83.8933 159.884 94.2933M171.884 77.2933C164.385 68.6267 142.785 54.7933 116.385 68.7933C105.885 74.1267 87.4846 91.0933 97.8846 116.293" stroke="white" stroke-width="4"/>
<path d="M121.885 113.293C117.385 110.793 106.585 108.193 99.3847 117.793C97.5514 119.96 94.6847 127.093 97.8847 138.293" stroke="white" stroke-width="4"/>
<path d="M98.8846 116.793C92.5513 113.627 76.8846 111.093 64.8846 126.293C60.5513 132.96 55.2846 149.493 68.8846 162.293" stroke="white" stroke-width="4"/>
<path d="M88.8848 156.293C78.0514 156.627 56.2848 163.593 55.8848 188.793C56.3848 196.96 62.0848 213.293 80.8848 213.293" stroke="white" stroke-width="4"/>
<path d="M87.8852 200.293C84.2185 203.96 78.2852 213.193 83.8852 220.793C86.885 224.627 95.4848 229.993 105.885 220.793" stroke="white" stroke-width="4"/>
<path d="M83.8845 184.793C83.7179 192.96 87.9845 207.593 106.385 200.793" stroke="white" stroke-width="4"/>
<path d="M92.3846 228.293C92.0513 237.127 95.8846 255.093 113.885 256.293C121.551 257.293 137.685 253.393 140.885 229.793" stroke="white" stroke-width="4"/>
<path d="M122.385 213.293C121.719 219.127 124.485 230.593 140.885 229.793C148.885 227.793 163.085 218.593 155.885 197.793C158.885 205.293 169.185 218.493 186.385 211.293C191.385 210.127 201.085 202.293 199.885 180.293C202.218 187.127 210.685 199.693 225.885 195.293C227.385 195.293 247.885 188.793 243.385 167.793C253.051 171.627 273.885 174.193 279.885 153.793C279.885 151.793 282.385 121.793 245.385 130.793" stroke="white" stroke-width="4"/>
<path d="M132.885 135.793C131.051 130.293 129.485 117.993 137.885 112.793C141.885 109.96 152.185 106.293 161.385 114.293" stroke="white" stroke-width="4"/>
<path d="M185.385 134.293C182.551 129.793 179.085 119.093 187.885 112.293C191.885 109.627 201.785 107.093 209.385 118.293" stroke="white" stroke-width="4"/>
<path d="M184.385 167.293C191.885 168.627 206.785 167.793 206.385 153.793" stroke="white" stroke-width="4"/>
<path d="M131.885 149.793C134.551 154.46 142.585 161.893 153.385 154.293C153.385 152.793 162.385 148.793 157.885 134.793" stroke="white" stroke-width="4"/>
<path d="M132.885 180.793C137.885 182.793 149.585 184.693 156.385 176.293C159.051 171.293 162.485 159.693 154.885 153.293" stroke="white" stroke-width="4"/>
<path d="M122.384 160.293C116.218 161.127 104.284 166.493 105.884 181.293C106.551 186.793 112.485 197.793 130.885 197.793" stroke="white" stroke-width="4"/>
<path d="M134.885 247.793C136.051 252.127 140.085 261.093 146.885 262.293C150.885 262.96 158.385 260.993 156.385 247.793C154.385 234.593 169.218 219.293 176.885 213.293" stroke="white" stroke-width="4"/>
<path d="M154.385 457.293C154.385 475.298 140.227 489.793 122.885 489.793C105.543 489.793 91.3848 475.298 91.3848 457.293C91.3848 439.288 105.543 424.793 122.885 424.793C140.227 424.793 154.385 439.288 154.385 457.293Z" stroke="#1E1E1E" stroke-width="4"/>
<path d="M139.385 457.293C139.385 467.008 131.725 474.793 122.385 474.793C113.045 474.793 105.385 467.008 105.385 457.293C105.385 447.579 113.045 439.793 122.385 439.793C131.725 439.793 139.385 447.579 139.385 457.293Z" stroke="#49C8FF" stroke-width="4"/>
<path d="M135.385 457.293C135.385 464.812 129.503 470.793 122.385 470.793C115.266 470.793 109.385 464.812 109.385 457.293C109.385 449.775 115.266 443.793 122.385 443.793C129.503 443.793 135.385 449.775 135.385 457.293Z" fill="#5E60CE" stroke="#5E60CE" stroke-width="4"/>
<path d="M84.7931 280.584C85.8894 280.718 86.8873 279.939 87.0219 278.842C87.1565 277.746 86.3769 276.748 85.2806 276.613C84.1842 276.479 83.1863 277.258 83.0517 278.355C82.9171 279.451 83.6967 280.449 84.7931 280.584Z" fill="#5E60CE"/>
<path d="M88.0321 287.026C89.1284 287.161 90.1263 286.381 90.2609 285.285C90.3955 284.189 89.6159 283.191 88.5195 283.056C87.4232 282.922 86.4253 283.701 86.2907 284.798C86.1561 285.894 86.9357 286.892 88.0321 287.026Z" fill="#5E60CE"/>
<path d="M92.3854 292.598C93.4818 292.733 94.4797 291.953 94.6143 290.857C94.7489 289.761 93.9693 288.763 92.8729 288.628C91.7766 288.494 90.7787 289.273 90.6441 290.37C90.5095 291.466 91.2891 292.464 92.3854 292.598Z" fill="#5E60CE"/>
<path d="M96.8607 297.178C97.957 297.313 98.9549 296.533 99.0895 295.437C99.2241 294.34 98.4445 293.342 97.3482 293.208C96.2518 293.073 95.2539 293.853 95.1193 294.949C94.9847 296.045 95.7644 297.043 96.8607 297.178Z" fill="#5E60CE"/>
<path d="M101.214 302.75C102.31 302.885 103.308 302.105 103.443 301.009C103.578 299.912 102.798 298.914 101.702 298.78C100.605 298.645 99.6073 299.425 99.4727 300.521C99.3381 301.618 100.118 302.615 101.214 302.75Z" fill="#5E60CE"/>
<path d="M105.567 308.322C106.664 308.457 107.662 307.677 107.796 306.581C107.931 305.484 107.151 304.487 106.055 304.352C104.959 304.217 103.961 304.997 103.826 306.093C103.691 307.19 104.471 308.188 105.567 308.322Z" fill="#5E60CE"/>
<path d="M110.913 314.016C112.01 314.151 113.008 313.371 113.142 312.275C113.277 311.178 112.497 310.181 111.401 310.046C110.305 309.911 109.307 310.691 109.172 311.787C109.037 312.884 109.817 313.881 110.913 314.016Z" fill="#5E60CE"/>
<path d="M115.267 319.588C116.363 319.723 117.361 318.943 117.496 317.847C117.63 316.751 116.851 315.753 115.754 315.618C114.658 315.483 113.66 316.263 113.526 317.359C113.391 318.456 114.171 319.454 115.267 319.588Z" fill="#5E60CE"/>
<path d="M119.742 324.168C120.839 324.302 121.836 323.523 121.971 322.426C122.106 321.33 121.326 320.332 120.23 320.198C119.133 320.063 118.136 320.843 118.001 321.939C117.866 323.035 118.646 324.033 119.742 324.168Z" fill="#5E60CE"/>
<path d="M124.096 329.74C125.192 329.874 126.19 329.095 126.324 327.998C126.459 326.902 125.679 325.904 124.583 325.77C123.487 325.635 122.489 326.415 122.354 327.511C122.22 328.607 122.999 329.605 124.096 329.74Z" fill="#5E60CE"/>
<path d="M128.449 335.312C129.545 335.446 130.543 334.667 130.678 333.571C130.812 332.474 130.033 331.476 128.936 331.342C127.84 331.207 126.842 331.987 126.708 333.083C126.573 334.179 127.353 335.177 128.449 335.312Z" fill="#5E60CE"/>
<path d="M132.681 341.877C133.777 342.011 134.775 341.232 134.909 340.135C135.044 339.039 134.264 338.041 133.168 337.906C132.072 337.772 131.074 338.551 130.939 339.648C130.805 340.744 131.584 341.742 132.681 341.877Z" fill="#5E60CE"/>
<path d="M135.919 348.319C137.016 348.454 138.014 347.674 138.148 346.578C138.283 345.482 137.503 344.484 136.407 344.349C135.311 344.214 134.313 344.994 134.178 346.09C134.044 347.187 134.823 348.185 135.919 348.319Z" fill="#5E60CE"/>
<path d="M139.158 354.762C140.255 354.897 141.253 354.117 141.387 353.021C141.522 351.924 140.742 350.926 139.646 350.792C138.55 350.657 137.552 351.437 137.417 352.533C137.282 353.63 138.062 354.627 139.158 354.762Z" fill="#5E60CE"/>
<path d="M142.397 361.205C143.494 361.339 144.492 360.56 144.626 359.463C144.761 358.367 143.981 357.369 142.885 357.235C141.789 357.1 140.791 357.88 140.656 358.976C140.521 360.072 141.301 361.07 142.397 361.205Z" fill="#5E60CE"/>
<path d="M145.636 367.648C146.733 367.782 147.731 367.002 147.865 365.906C148 364.81 147.22 363.812 146.124 363.677C145.028 363.543 144.03 364.322 143.895 365.419C143.76 366.515 144.54 367.513 145.636 367.648Z" fill="#5E60CE"/>
<path d="M147.883 373.968C148.979 374.103 149.977 373.323 150.112 372.227C150.246 371.131 149.467 370.133 148.37 369.998C147.274 369.864 146.276 370.643 146.141 371.74C146.007 372.836 146.786 373.834 147.883 373.968Z" fill="#5E60CE"/>
<path d="M149.015 381.16C150.111 381.295 151.109 380.515 151.244 379.419C151.378 378.322 150.599 377.324 149.502 377.19C148.406 377.055 147.408 377.835 147.273 378.931C147.139 380.027 147.918 381.025 149.015 381.16Z" fill="#5E60CE"/>
<path d="M150.147 388.352C151.243 388.486 152.241 387.707 152.376 386.61C152.51 385.514 151.731 384.516 150.634 384.381C149.538 384.247 148.54 385.026 148.405 386.123C148.271 387.219 149.051 388.217 150.147 388.352Z" fill="#5E60CE"/>
<path d="M150.286 395.421C151.383 395.556 152.381 394.776 152.515 393.68C152.65 392.584 151.87 391.586 150.774 391.451C149.677 391.316 148.68 392.096 148.545 393.192C148.41 394.289 149.19 395.287 150.286 395.421Z" fill="#5E60CE"/>
<path d="M150.548 401.498C151.644 401.633 152.642 400.853 152.776 399.757C152.911 398.661 152.131 397.663 151.035 397.528C149.939 397.394 148.941 398.173 148.806 399.27C148.672 400.366 149.451 401.364 150.548 401.498Z" fill="#5E60CE"/>
<path d="M149.573 409.439C150.669 409.573 151.667 408.794 151.802 407.697C151.936 406.601 151.156 405.603 150.06 405.469C148.964 405.334 147.966 406.114 147.831 407.21C147.697 408.306 148.476 409.304 149.573 409.439Z" fill="#5E60CE"/>
<path d="M147.727 416.265C148.823 416.399 149.821 415.62 149.956 414.523C150.09 413.427 149.311 412.429 148.215 412.295C147.118 412.16 146.12 412.94 145.986 414.036C145.851 415.132 146.631 416.13 147.727 416.265Z" fill="#5E60CE"/>
<path d="M347.385 365.793C348.49 365.793 349.385 364.898 349.385 363.793C349.385 362.688 348.49 361.793 347.385 361.793C346.28 361.793 345.385 362.688 345.385 363.793C345.385 364.898 346.28 365.793 347.385 365.793Z" fill="#5E60CE"/>
<path d="M340.385 368.793C341.49 368.793 342.385 367.898 342.385 366.793C342.385 365.688 341.49 364.793 340.385 364.793C339.28 364.793 338.385 365.688 338.385 366.793C338.385 367.898 339.28 368.793 340.385 368.793Z" fill="#5E60CE"/>
<path d="M333.385 370.793C334.49 370.793 335.385 369.898 335.385 368.793C335.385 367.688 334.49 366.793 333.385 366.793C332.28 366.793 331.385 367.688 331.385 368.793C331.385 369.898 332.28 370.793 333.385 370.793Z" fill="#5E60CE"/>
<path d="M327.385 373.793C328.49 373.793 329.385 372.898 329.385 371.793C329.385 370.688 328.49 369.793 327.385 369.793C326.28 369.793 325.385 370.688 325.385 371.793C325.385 372.898 326.28 373.793 327.385 373.793Z" fill="#5E60CE"/>
<path d="M321.385 376.793C322.49 376.793 323.385 375.898 323.385 374.793C323.385 373.688 322.49 372.793 321.385 372.793C320.28 372.793 319.385 373.688 319.385 374.793C319.385 375.898 320.28 376.793 321.385 376.793Z" fill="#5E60CE"/>
<path d="M315.385 381.793C316.49 381.793 317.385 380.898 317.385 379.793C317.385 378.688 316.49 377.793 315.385 377.793C314.28 377.793 313.385 378.688 313.385 379.793C313.385 380.898 314.28 381.793 315.385 381.793Z" fill="#5E60CE"/>
<path d="M310.385 385.793C311.49 385.793 312.385 384.898 312.385 383.793C312.385 382.688 311.49 381.793 310.385 381.793C309.28 381.793 308.385 382.688 308.385 383.793C308.385 384.898 309.28 385.793 310.385 385.793Z" fill="#5E60CE"/>
<path d="M306.385 391.793C307.49 391.793 308.385 390.898 308.385 389.793C308.385 388.688 307.49 387.793 306.385 387.793C305.28 387.793 304.385 388.688 304.385 389.793C304.385 390.898 305.28 391.793 306.385 391.793Z" fill="#5E60CE"/>
<path d="M302.385 398.793C303.49 398.793 304.385 397.898 304.385 396.793C304.385 395.688 303.49 394.793 302.385 394.793C301.28 394.793 300.385 395.688 300.385 396.793C300.385 397.898 301.28 398.793 302.385 398.793Z" fill="#5E60CE"/>
<path d="M364 123C365.105 123 366 122.104 366 121C366 119.895 365.105 119 364 119C362.895 119 362 119.895 362 121C362 122.104 362.895 123 364 123Z" fill="#5E60CE"/>
<path d="M358 109C359.105 109 360 108.104 360 107C360 105.895 359.105 105 358 105C356.895 105 356 105.895 356 107C356 108.104 356.895 109 358 109Z" fill="#5E60CE"/>
<path d="M356 102C357.105 102 358 101.105 358 100C358 98.8954 357.105 98 356 98C354.895 98 354 98.8954 354 100C354 101.105 354.895 102 356 102Z" fill="#5E60CE"/>
<path d="M352 96C353.105 96 354 95.1046 354 94C354 92.8954 353.105 92 352 92C350.895 92 350 92.8954 350 94C350 95.1046 350.895 96 352 96Z" fill="#5E60CE"/>
<path d="M348 90C349.105 90 350 89.1046 350 88C350 86.8954 349.105 86 348 86C346.895 86 346 86.8954 346 88C346 89.1046 346.895 90 348 90Z" fill="#5E60CE"/>
<path d="M344 84C345.105 84 346 83.1046 346 82C346 80.8954 345.105 80 344 80C342.895 80 342 80.8954 342 82C342 83.1046 342.895 84 344 84Z" fill="#5E60CE"/>
<path d="M340 78C341.105 78 342 77.1046 342 76C342 74.8954 341.105 74 340 74C338.895 74 338 74.8954 338 76C338 77.1046 338.895 78 340 78Z" fill="#5E60CE"/>
<path d="M362 116C363.105 116 364 115.104 364 114C364 112.895 363.105 112 362 112C360.895 112 360 112.895 360 114C360 115.104 360.895 116 362 116Z" fill="#5E60CE"/>
<path d="M336 72C337.105 72 338 71.1046 338 70C338 68.8954 337.105 68 336 68C334.895 68 334 68.8954 334 70C334 71.1046 334.895 72 336 72Z" fill="#5E60CE"/>
<path d="M332 68C333.105 68 334 67.1046 334 66C334 64.8954 333.105 64 332 64C330.895 64 330 64.8954 330 66C330 67.1046 330.895 68 332 68Z" fill="#5E60CE"/>
<path d="M328 62C329.105 62 330 61.1046 330 60C330 58.8954 329.105 58 328 58C326.895 58 326 58.8954 326 60C326 61.1046 326.895 62 328 62Z" fill="#5E60CE"/>
<path d="M322 56C323.105 56 324 55.1046 324 54C324 52.8954 323.105 52 322 52C320.895 52 320 52.8954 320 54C320 55.1046 320.895 56 322 56Z" fill="#5E60CE"/>
<path d="M317 52C318.105 52 319 51.1046 319 50C319 48.8954 318.105 48 317 48C315.895 48 315 48.8954 315 50C315 51.1046 315.895 52 317 52Z" fill="#5E60CE"/>
<path d="M311 48C312.105 48 313 47.1046 313 46C313 44.8954 312.105 44 311 44C309.895 44 309 44.8954 309 46C309 47.1046 309.895 48 311 48Z" fill="#5E60CE"/>
<path d="M305 43C306.105 43 307 42.1046 307 41C307 39.8954 306.105 39 305 39C303.895 39 303 39.8954 303 41C303 42.1046 303.895 43 305 43Z" fill="#5E60CE"/>
</svg>
