<svg width="185" height="48" viewBox="0 0 185 48" fill="none" xmlns="http://www.w3.org/2000/svg">
<path d="M1.73047 47V12.625H10.8125C12.7135 12.625 14.2174 13.0482 15.3242 13.8945C16.444 14.7409 17.2448 15.9453 17.7266 17.5078C18.2083 19.0703 18.4492 20.9323 18.4492 23.0938C18.4492 25.1771 18.2474 26.9935 17.8438 28.543C17.4401 30.0794 16.7174 31.2708 15.6758 32.1172C14.6471 32.9635 13.1823 33.3867 11.2812 33.3867H8.48828V47H1.73047ZM8.48828 27.2148H8.87891C10.1549 27.2148 10.9362 26.8568 11.2227 26.1406C11.5091 25.4245 11.6523 24.3698 11.6523 22.9766C11.6523 21.6745 11.5091 20.6719 11.2227 19.9688C10.9492 19.2526 10.2917 18.8945 9.25 18.8945H8.48828V27.2148ZM28.8008 47.3125C25.6628 47.3125 23.3971 46.5312 22.0039 44.9688C20.6237 43.4062 19.9336 40.9193 19.9336 37.5078V34.1484H26.7305V38.4453C26.7305 39.2396 26.8477 39.8646 27.082 40.3203C27.3294 40.763 27.7526 40.9844 28.3516 40.9844C28.9766 40.9844 29.4062 40.8021 29.6406 40.4375C29.888 40.0729 30.0117 39.474 30.0117 38.6406C30.0117 37.5859 29.9076 36.707 29.6992 36.0039C29.4909 35.2878 29.1263 34.6107 28.6055 33.9727C28.0977 33.3216 27.388 32.5664 26.4766 31.707L23.3906 28.7773C21.0859 26.6029 19.9336 24.1159 19.9336 21.3164C19.9336 18.3867 20.6107 16.1536 21.9648 14.6172C23.332 13.0807 25.3047 12.3125 27.8828 12.3125C31.0339 12.3125 33.2669 13.1523 34.582 14.832C35.9102 16.5117 36.5742 19.0638 36.5742 22.4883H29.582V20.125C29.582 19.6562 29.4453 19.2917 29.1719 19.0312C28.9115 18.7708 28.5534 18.6406 28.0977 18.6406C27.5508 18.6406 27.1471 18.7969 26.8867 19.1094C26.6393 19.4089 26.5156 19.7995 26.5156 20.2812C26.5156 20.763 26.6458 21.2839 26.9062 21.8438C27.1667 22.4036 27.681 23.0482 28.4492 23.7773L32.4141 27.5859C33.2083 28.3411 33.9375 29.1419 34.6016 29.9883C35.2656 30.8216 35.7995 31.7982 36.2031 32.918C36.6068 34.0247 36.8086 35.3789 36.8086 36.9805C36.8086 40.2096 36.2096 42.7422 35.0117 44.5781C33.8268 46.401 31.7565 47.3125 28.8008 47.3125ZM38.8008 47V12.625H45.4414V47H38.8008Z" fill="#019CDF"/>
<path d="M47.7266 46.9805V41.1602H54.7188V46.9805H47.7266Z" fill="#5E60CE"/>
<path d="M58.4492 47V12.625H72.1992V19.2656H65.4414V25.9648H71.9258V32.4297H65.4414V40.3008H72.6484V47H58.4492ZM74.9336 47V12.625H82.0039L85.168 29.0898V12.625H91.8086V47H85.0898L81.6523 29.8125V47H74.9336ZM97.8047 47V19.2266H93.7227V12.625H108.762V19.2266H104.68V47H97.8047ZM110.676 47V12.625H121.223C122.98 12.625 124.309 13.0286 125.207 13.8359C126.105 14.6302 126.704 15.75 127.004 17.1953C127.316 18.6276 127.473 20.3138 127.473 22.2539C127.473 24.1289 127.232 25.6263 126.75 26.7461C126.281 27.8659 125.389 28.6406 124.074 29.0703C125.155 29.2917 125.91 29.832 126.34 30.6914C126.783 31.5378 127.004 32.638 127.004 33.9922V47H120.227V33.543C120.227 32.5404 120.018 31.9219 119.602 31.6875C119.198 31.4401 118.54 31.3164 117.629 31.3164V47H110.676ZM117.668 25.3594H119.328C120.279 25.3594 120.754 24.3242 120.754 22.2539C120.754 20.9128 120.65 20.0339 120.441 19.6172C120.233 19.2005 119.842 18.9922 119.27 18.9922H117.668V25.3594ZM129.738 47V12.625H143.488V19.2656H136.73V25.9648H143.215V32.4297H136.73V40.3008H143.938V47H129.738ZM146.223 47V12.625H153.293L156.457 29.0898V12.625H163.098V47H156.379L152.941 29.8125V47H146.223ZM174.348 47.3125C171.6 47.3125 169.497 46.4857 168.039 44.832C166.594 43.1654 165.871 40.763 165.871 37.625V21.2969C165.871 18.3542 166.587 16.1211 168.02 14.5977C169.465 13.0742 171.574 12.3125 174.348 12.3125C177.121 12.3125 179.224 13.0742 180.656 14.5977C182.102 16.1211 182.824 18.3542 182.824 21.2969V37.625C182.824 40.763 182.095 43.1654 180.637 44.832C179.191 46.4857 177.095 47.3125 174.348 47.3125ZM174.406 40.9844C175.448 40.9844 175.969 39.9753 175.969 37.957V21.1797C175.969 19.487 175.461 18.6406 174.445 18.6406C173.299 18.6406 172.727 19.5065 172.727 21.2383V37.9961C172.727 39.0638 172.857 39.832 173.117 40.3008C173.378 40.7565 173.807 40.9844 174.406 40.9844Z" fill="#1E1E1E"/>
</svg>
